<?xml version="1.0" encoding="UTF-8" standalone="no"?>
<!-- Created with Inkscape (http://www.inkscape.org/) -->

<svg
   width="50mm"
   height="44mm"
   viewBox="0 0 50 44"
   version="1.1"
   id="svg1"
   inkscape:version="1.3.2 (091e20e, 2023-11-25, custom)"
   sodipodi:docname="arrow.svg"
   xmlns:inkscape="http://www.inkscape.org/namespaces/inkscape"
   xmlns:sodipodi="http://sodipodi.sourceforge.net/DTD/sodipodi-0.dtd"
   xmlns="http://www.w3.org/2000/svg"
   xmlns:svg="http://www.w3.org/2000/svg">
  <sodipodi:namedview
     id="namedview1"
     pagecolor="#ffffff"
     bordercolor="#000000"
     borderopacity="0.25"
     inkscape:showpageshadow="2"
     inkscape:pageopacity="0.0"
     inkscape:pagecheckerboard="0"
     inkscape:deskcolor="#d1d1d1"
     inkscape:document-units="mm"
     inkscape:zoom="1.4627806"
     inkscape:cx="170.90738"
     inkscape:cy="265.59007"
     inkscape:window-width="1920"
     inkscape:window-height="1017"
     inkscape:window-x="-8"
     inkscape:window-y="-8"
     inkscape:window-maximized="1"
     inkscape:current-layer="layer1" />
  <defs
     id="defs1" />
  <g
     inkscape:label="Шар 1"
     inkscape:groupmode="layer"
     id="layer1">
    <path
       class="uuid-5c3f599b-0831-487a-9131-9111fc1ba0e6"
       d="m 20.284994,35.850327 c -1.589167,0.660781 -2.30137,1.910248 -1.455653,3.542263 0.597127,1.154022 2.231759,1.991269 3.522006,1.930518 3.295938,-0.153422 4.023386,-1.201188 5.843611,-3.829659 2.398962,-3.465531 4.682476,-7.013314 7.022871,-10.517247 C 40.066256,19.715726 44.825269,12.408507 49.525478,5.0520656 51.735161,1.5924879 45.643867,-0.44586368 43.241866,0.08301367 30.752468,2.8299053 18.144857,2.9817975 5.6511235,0.18184597 3.6552138,-0.26686316 -0.72232892,0.82483621 0.10214981,3.792189 2.3428084,11.867759 5.2952489,19.826711 9.2492851,27.229757 c 3.1151119,5.834019 7.3307489,15.213799 14.3646539,16.72099 0.978687,0.209443 2.874329,0.198556 3.432634,-0.912246 1.574688,-3.131783 -0.04011,-4.627882 -1.896938,-7.372375 -2.15511,-3.185317 -4.123316,-6.484768 -5.938358,-9.874162 C 15.391381,18.66558 12.329379,11.304312 10.030846,3.5511002 8.1811611,4.7533458 6.3315566,5.9591967 4.481872,7.1614433 18.557947,10.141372 32.993526,9.8538033 47.004316,6.646042 44.909804,4.9908931 42.813452,3.3339801 40.720704,1.6769891 33.335548,13.524422 26.631287,25.903507 18.905553,37.520293 c 1.203223,-0.327623 2.404683,-0.653404 3.607907,-0.981027 -0.166745,-0.03603 -0.335258,-0.07021 -0.501926,-0.102642 0.789708,0.558128 1.577652,1.118098 2.367359,1.676227 -0.03292,0.226207 -0.06585,0.452413 -0.09693,0.680383 1.410674,-2.137856 -2.446998,-3.581183 -3.993288,-2.939379 v 0 z"
       id="path26"
       style="stroke-width:0px"
       inkscape:transform-center-x="-28.420213"
       inkscape:transform-center-y="31.209926" />
  </g>
</svg>
