<?xml version="1.0" encoding="UTF-8" standalone="no"?>
<!-- Created with Inkscape (http://www.inkscape.org/) -->

<svg
   width="100mm"
   height="100mm"
   viewBox="0 0 100 100"
   version="1.1"
   id="svg1"
   inkscape:version="1.3.2 (091e20e, 2023-11-25, custom)"
   sodipodi:docname="border.svg"
   xmlns:inkscape="http://www.inkscape.org/namespaces/inkscape"
   xmlns:sodipodi="http://sodipodi.sourceforge.net/DTD/sodipodi-0.dtd"
   xmlns="http://www.w3.org/2000/svg"
   xmlns:svg="http://www.w3.org/2000/svg">
  <sodipodi:namedview
     id="namedview1"
     pagecolor="#ffffff"
     bordercolor="#000000"
     borderopacity="0.25"
     inkscape:showpageshadow="2"
     inkscape:pageopacity="0.0"
     inkscape:pagecheckerboard="0"
     inkscape:deskcolor="#d1d1d1"
     inkscape:document-units="mm"
     inkscape:zoom="0.73139029"
     inkscape:cx="396.50513"
     inkscape:cy="342.49839"
     inkscape:window-width="1920"
     inkscape:window-height="1017"
     inkscape:window-x="-8"
     inkscape:window-y="-8"
     inkscape:window-maximized="1"
     inkscape:current-layer="g4" />
  <defs
     id="defs1" />
  <g
     inkscape:label="Шар 1"
     inkscape:groupmode="layer"
     id="layer1">
    <g
       id="g4"
       transform="matrix(0.26458333,0,0,0.26458333,-536.81279,-88.118518)">
      <path
         class="uuid-5c3f599b-0831-487a-9131-9111fc1ba0e6"
         d="m 2038.0298,350.78952 c 3.1369,118.01154 8.033,235.85633 9.3006,353.98558 0.071,6.7976 6.9658,7.11149 9.7276,5.23798 25.0173,-16.9793 51.975,-15.26274 78.7193,-12.2612 29.1696,3.27619 58.294,5.84614 87.5607,5.99327 57.9512,0.28446 115.8314,-7.00359 173.0453,-20.88326 5.7628,-1.40268 10.6136,-8.7594 10.4649,-17.66593 -1.7593,-108.15354 -4.0618,-216.29727 -6.3191,-324.43119 -0.1681,-8.19048 -7.8518,-6.97417 -10.9693,-5.61072 -55.2542,24.18888 -115.1523,13.144 -171.7324,9.32832 -59.0055,-3.97263 -118.0045,-7.87659 -177.0165,-11.42744 -8.4275,-0.51006 -18.2326,21.94264 -6.5324,22.85487 62.1682,4.88486 124.3494,9.36755 186.5371,13.8012 57.3238,4.09033 115.6502,12.30043 171.59,-11.98654 -3.6543,-1.87352 -7.315,-3.73722 -10.9693,-5.61073 2.0632,108.05545 4.0876,216.12071 6.6488,324.14673 3.4862,-5.88537 6.9788,-11.78055 10.4649,-17.66593 -60.4866,15.62567 -121.7494,22.98239 -183.1156,21.76608 -28.7558,-0.56892 -57.298,-4.38461 -85.9956,-6.58181 -25.4959,-1.95199 -51.1148,-0.0687 -74.7028,16.04745 3.2404,1.74599 6.4872,3.49199 9.7276,5.23798 -1.5135,-117.02083 -4.3334,-234.34575 -13.9963,-350.54263 -0.8602,-10.37787 -12.6639,-2.43262 -12.431,6.26792 v 0 z"
         id="path1"
         style="stroke-width:0px" />
    </g>
  </g>
</svg>
