<?xml version="1.0" encoding="UTF-8" standalone="no"?>
<!-- Created with Inkscape (http://www.inkscape.org/) -->

<svg
   width="211mm"
   height="100mm"
   viewBox="0 0 211 100"
   version="1.1"
   id="svg1"
   inkscape:version="1.3.2 (091e20e, 2023-11-25, custom)"
   sodipodi:docname="osci.svg"
   xmlns:inkscape="http://www.inkscape.org/namespaces/inkscape"
   xmlns:sodipodi="http://sodipodi.sourceforge.net/DTD/sodipodi-0.dtd"
   xmlns="http://www.w3.org/2000/svg"
   xmlns:svg="http://www.w3.org/2000/svg">
  <sodipodi:namedview
     id="namedview1"
     pagecolor="#ffffff"
     bordercolor="#000000"
     borderopacity="0.25"
     inkscape:showpageshadow="2"
     inkscape:pageopacity="0.0"
     inkscape:pagecheckerboard="0"
     inkscape:deskcolor="#d1d1d1"
     inkscape:document-units="mm"
     inkscape:zoom="0.73139029"
     inkscape:cx="396.50513"
     inkscape:cy="342.49839"
     inkscape:window-width="1920"
     inkscape:window-height="1017"
     inkscape:window-x="-8"
     inkscape:window-y="-8"
     inkscape:window-maximized="1"
     inkscape:current-layer="layer1" />
  <defs
     id="defs1" />
  <g
     inkscape:label="Шар 1"
     inkscape:groupmode="layer"
     id="layer1">
    <g
       id="g109"
       transform="matrix(0.19384689,0,0,0.19384689,-95.037902,-431.27388)">
      <path
         class="uuid-432ea2d1-912f-4d2e-a4a2-a2c0cda53f82"
         d="m 493.88,2467.83 c -5.96,17.64 -2.98,36 -1.92,54.52 1,17.4 -1.84,40.82 7.18,55.68 5.77,9.5 21.81,2.09 24.69,-6.9 5.7,-17.81 2.09,-35.93 0.79,-54.52 -1.21,-17.26 1.01,-40.17 -8.32,-54.78 -5.38,-8.42 -19.62,-2.34 -22.43,5.98 v 0 z"
         id="path91"
         style="stroke-width:0px" />
      <path
         class="uuid-432ea2d1-912f-4d2e-a4a2-a2c0cda53f82"
         d="m 544.26,2445.77 c -2.25,28.52 0.71,57.66 0.8,86.26 0.1,28.55 -0.5,57.13 -1.43,85.67 -0.69,21.14 31.3,10.55 31.97,-5.97 1.15,-28.23 1.51,-56.41 1.05,-84.66 -0.47,-29.1 0.71,-60.34 -5.28,-88.8 -3.18,-15.1 -26.19,-4.2 -27.11,7.51 v 0 z"
         id="path92"
         style="stroke-width:0px" />
      <path
         class="uuid-432ea2d1-912f-4d2e-a4a2-a2c0cda53f82"
         d="m 601.96,2384.76 c 1.61,50.06 2.05,100.16 3.86,150.22 0.9,24.91 1.86,49.83 2.67,74.74 0.79,24.26 -0.72,50.09 4.31,73.81 3.4,16.01 27.08,3.98 28.32,-8.02 4.93,-47.69 -3.57,-99.64 -6.16,-147.5 -2.74,-50.65 -6.84,-101.2 -9.78,-151.83 -0.78,-13.51 -23.6,-3.31 -23.22,8.58 z"
         id="path93"
         style="stroke-width:0px" />
      <path
         class="uuid-432ea2d1-912f-4d2e-a4a2-a2c0cda53f82"
         d="m 658.7,2422.61 c 1.94,36.3 3.18,72.8 4.49,109.15 0.65,18.01 1.06,36.04 1.52,54.06 0.43,16.98 -1.74,36.43 2.93,52.58 4.09,14.13 22.28,3.58 24.69,-6.53 7.77,-32.68 1.7,-73.66 -0.29,-107.07 -2.21,-37.16 -6.39,-73.29 -11.63,-110.03 -1.84,-12.93 -22.28,-3.02 -21.7,7.84 v 0 z"
         id="path94"
         style="stroke-width:0px" />
      <path
         class="uuid-432ea2d1-912f-4d2e-a4a2-a2c0cda53f82"
         d="m 727.14,2324.88 c -8.49,65.77 -1,136.33 0.45,202.5 0.77,35.33 1.54,70.66 2.31,105.99 0.4,18.43 0.8,36.86 1.21,55.3 0.35,16.07 -0.99,32.14 4.52,47.17 4.48,12.22 21.71,-1.64 23.56,-8.96 7.41,-29.28 1.22,-65.93 0.47,-96.26 -0.87,-35.27 -1.74,-70.55 -2.61,-105.82 -0.83,-33.74 -1.66,-67.48 -2.49,-101.22 -0.84,-34.13 0.04,-70.36 -6.41,-103.85 -2.27,-11.79 -19.87,-3.73 -21.02,5.17 v 0 z"
         id="path95"
         style="stroke-width:0px" />
      <path
         class="uuid-432ea2d1-912f-4d2e-a4a2-a2c0cda53f82"
         d="m 788.21,2403.37 c 0.5,37.95 5,75.57 4.62,113.67 -0.36,35.73 -4.73,70.72 -6.64,106.27 -1,18.61 24.94,8.67 27.4,-4.5 6.64,-35.43 7.16,-73.36 6.7,-109.43 -0.47,-36.96 -1.91,-77.68 -11.6,-113.28 -3.31,-12.15 -20.61,-2.91 -20.48,7.27 z"
         id="path96"
         style="stroke-width:0px" />
      <path
         class="uuid-432ea2d1-912f-4d2e-a4a2-a2c0cda53f82"
         d="m 861.8,2440.99 c -0.1,24.99 -0.56,50.67 -2.3,75.6 -1.22,17.53 -9.43,38.44 -1.79,54.55 4.32,9.11 17.39,2 21.4,-3.37 12.76,-17.11 12.82,-40.46 13.79,-61.83 1.18,-25.95 -1.55,-48.22 -9.1,-72.94 -3.98,-13.05 -21.96,-2.94 -22,7.99 z"
         id="path97"
         style="stroke-width:0px" />
      <path
         class="uuid-432ea2d1-912f-4d2e-a4a2-a2c0cda53f82"
         d="m 927.76,2426.62 c -1.35,45.99 3.22,97.55 11.36,142.69 3.02,16.74 27.32,2.49 27.13,-10.61 -0.64,-44.19 -4.84,-95.33 -14.71,-138.25 -2.93,-12.72 -23.46,-4.53 -23.77,6.18 v 0 z"
         id="path98"
         style="stroke-width:0px" />
      <path
         class="uuid-432ea2d1-912f-4d2e-a4a2-a2c0cda53f82"
         d="m 994.17,2337.65 c -2.78,52.39 0.52,105.38 1.61,157.82 1.1,53.1 -2.27,110.26 5.83,162.66 2.4,15.54 26.49,3.94 27.41,-7.64 4.09,-51.37 -2.1,-105.63 -4.42,-157.1 -2.4,-53.49 -2.24,-108.03 -8.8,-161.13 -1.48,-12 -21.14,-3.94 -21.63,5.38 v 0 z"
         id="path99"
         style="stroke-width:0px" />
      <path
         class="uuid-432ea2d1-912f-4d2e-a4a2-a2c0cda53f82"
         d="m 1040.98,2308.56 c 6.06,123.23 17.33,245.55 18.69,369.11 0.17,15.7 29.53,4.91 29.52,-8.55 -0.04,-122.38 -3.27,-248.57 -25.6,-368.84 -2.52,-13.56 -23.16,-2.95 -22.61,8.29 v 0 z"
         id="path100"
         style="stroke-width:0px" />
      <path
         class="uuid-432ea2d1-912f-4d2e-a4a2-a2c0cda53f82"
         d="m 1100.31,2400.92 c -2.2,27.45 1.46,54.61 2.74,82.04 1.1,23.51 -6.18,61.68 9.46,79.55 7.51,8.59 20.99,-3.25 24.69,-10.11 11.49,-21.34 4.73,-52.84 2.68,-76.54 -2.47,-28.61 -4.44,-57.77 -15.13,-84.35 -4.58,-11.39 -23.7,0.35 -24.43,9.41 v 0 z"
         id="path101"
         style="stroke-width:0px" />
      <path
         class="uuid-432ea2d1-912f-4d2e-a4a2-a2c0cda53f82"
         d="m 1158.26,2428.49 c 1.18,21.18 3.98,42 5.83,63.06 1.58,18.09 -3.24,37.98 3.72,54.78 4.53,10.93 20.86,0.39 23.85,-6.55 8.18,-18.99 4.79,-42.92 3.12,-63.34 -1.7,-20.86 -6.53,-39.57 -15.51,-58.07 -5.07,-10.44 -21.51,0.9 -21,10.11 v 0 z"
         id="path102"
         style="stroke-width:0px" />
      <path
         class="uuid-432ea2d1-912f-4d2e-a4a2-a2c0cda53f82"
         d="m 1218.76,2365.97 c 2.09,37.33 3.9,74.75 4.72,112.15 0.78,35.56 -3.79,75.3 2.37,110.12 2.78,15.74 24.56,3.05 26.51,-7.26 6.47,-34.28 2.36,-75.18 0.35,-109.93 -2.2,-38.05 -5.86,-75.71 -11.34,-113.36 -1.96,-13.48 -23.24,-3.05 -22.61,8.29 v 0 z"
         id="path103"
         style="stroke-width:0px" />
      <path
         class="uuid-432ea2d1-912f-4d2e-a4a2-a2c0cda53f82"
         d="m 1284.92,2297.9 c -10.8,121.86 -12.72,245.78 -8.21,368.12 0.62,16.82 29.05,3.19 28.91,-11.6 -1.14,-120.78 4.88,-241.66 2.15,-362.35 -0.29,-12.66 -22,-3.87 -22.86,5.83 v 0 z"
         id="path104"
         style="stroke-width:0px" />
      <path
         class="uuid-432ea2d1-912f-4d2e-a4a2-a2c0cda53f82"
         d="m 1338.26,2236.43 c -4.07,79.21 -0.35,159 -0.84,238.33 -0.49,79.03 -2.29,158 -5.57,236.95 -0.7,16.84 24.85,9.18 25.57,-3.97 4.39,-80.7 7.47,-161.56 8.34,-242.41 0.84,-77.75 3.18,-157.15 -5.56,-234.4 -1.38,-12.17 -21.45,-3.96 -21.94,5.49 v 0 z"
         id="path105"
         style="stroke-width:0px" />
      <path
         class="uuid-432ea2d1-912f-4d2e-a4a2-a2c0cda53f82"
         d="m 1389.46,2333.35 c 0.56,51.73 0.87,103.48 0.44,155.21 -0.44,52.1 -5.34,104.07 -5.79,156.08 -0.12,13.7 22.98,3.5 24.38,-6.41 7.4,-52.34 7.37,-107.14 8.04,-160.01 0.65,-50.9 -1.42,-101.65 -6.29,-152.28 -1.2,-12.44 -20.89,-2.85 -20.78,7.41 z"
         id="path106"
         style="stroke-width:0px" />
      <path
         class="uuid-432ea2d1-912f-4d2e-a4a2-a2c0cda53f82"
         d="m 1436.86,2378.23 c -0.33,67.94 2.4,135.95 5.41,203.85 0.7,15.79 27.94,3.5 27.43,-10.78 -2.41,-67.08 -5.02,-134.29 -10.84,-201.06 -1.15,-13.26 -21.95,-2.77 -22,7.99 z"
         id="path107"
         style="stroke-width:0px" />
      <path
         class="uuid-432ea2d1-912f-4d2e-a4a2-a2c0cda53f82"
         d="m 1496.35,2413.7 c -3.58,41.57 -5.11,83 -3.81,124.79 0.51,16.26 29.41,4.5 29.82,-8.68 1.27,-40.73 -0.1,-81.23 -3.77,-121.71 -1.13,-12.52 -21.44,-3.75 -22.24,5.61 v 0 z"
         id="path108"
         style="stroke-width:0px" />
      <path
         class="uuid-432ea2d1-912f-4d2e-a4a2-a2c0cda53f82"
         d="m 1548.06,2413.94 c -4.54,22.85 -2.47,48.3 -2.66,71.67 -0.17,21.43 -0.56,43.31 1.41,64.63 1.39,15.07 25.54,3.8 26.51,-7.26 1.91,-21.75 1.63,-43.99 1.42,-65.84 -0.21,-22.36 2.42,-47.81 -2.6,-69.5 -3.22,-13.92 -22.14,-3.46 -24.08,6.29 v 0 z"
         id="path109"
         style="stroke-width:0px" />
    </g>
  </g>
</svg>
