<?xml version="1.0" encoding="UTF-8" standalone="no"?>
<!-- Created with Inkscape (http://www.inkscape.org/) -->

<svg
   width="100mm"
   height="100mm"
   viewBox="0 0 100 100"
   version="1.1"
   id="svg1"
   inkscape:version="1.3.2 (091e20e, 2023-11-25, custom)"
   sodipodi:docname="play_btn.svg"
   xmlns:inkscape="http://www.inkscape.org/namespaces/inkscape"
   xmlns:sodipodi="http://sodipodi.sourceforge.net/DTD/sodipodi-0.dtd"
   xmlns="http://www.w3.org/2000/svg"
   xmlns:svg="http://www.w3.org/2000/svg">
  <sodipodi:namedview
     id="namedview1"
     pagecolor="#ffffff"
     bordercolor="#000000"
     borderopacity="0.25"
     inkscape:showpageshadow="2"
     inkscape:pageopacity="0.0"
     inkscape:pagecheckerboard="0"
     inkscape:deskcolor="#d1d1d1"
     inkscape:document-units="mm"
     inkscape:zoom="0.73139029"
     inkscape:cx="396.50513"
     inkscape:cy="342.49839"
     inkscape:window-width="1920"
     inkscape:window-height="1017"
     inkscape:window-x="-8"
     inkscape:window-y="-8"
     inkscape:window-maximized="1"
     inkscape:current-layer="layer1" />
  <defs
     id="defs1" />
  <g
     inkscape:label="Шар 1"
     inkscape:groupmode="layer"
     id="layer1">
    <path
       class="uuid-5c3f599b-0831-487a-9131-9111fc1ba0e6"
       d="m 39.882822,36.057013 c 0.540671,-1.240731 0.267343,-2.338919 -1.0933,-2.806704 -0.961625,-0.331263 -2.338228,0.08232 -3.034519,0.819123 -1.779605,1.881176 -1.623986,2.872958 -1.230949,5.358436 0.518709,3.276497 1.147161,6.536931 1.719751,9.803389 1.187064,6.767811 2.44996,13.513537 3.772684,20.255249 0.622469,3.170089 5.167257,1.013866 6.238614,-0.594266 5.57225,-8.359883 12.614877,-15.308384 21.189717,-20.516244 1.370619,-0.831171 3.253974,-3.834625 1.183081,-5.073349 C 62.993805,39.929784 57.020535,37.01065 50.781932,34.952802 45.866068,33.330617 38.410463,30.291023 33.620273,33.262355 c -0.666354,0.413577 -1.731718,1.451536 -1.446433,2.387104 0.804023,2.638061 2.525775,2.609954 5.059525,3.160052 2.940744,0.638435 5.837602,1.443505 8.69654,2.383088 6.013165,1.973527 11.725076,4.493136 17.217518,7.65118 0.395028,-1.690447 0.788055,-3.382902 1.183082,-5.073348 -9.5664,5.966755 -17.568651,13.987344 -23.751393,23.437385 C 42.65798,67.009056 44.73884,66.8103 46.817717,66.613549 44.583229,55.856524 41.676404,45.16776 39.75913,34.356528 c -0.50276,0.841209 -1.005519,1.680409 -1.508279,2.521617 0.113715,-0.07026 0.227441,-0.142544 0.339165,-0.214819 -0.748151,0.112429 -1.496312,0.22285 -2.244463,0.335279 -0.10374,-0.146559 -0.207489,-0.293117 -0.313221,-0.439677 0.359107,1.983564 3.319803,0.704687 3.846507,-0.501915 v 0 z"
       id="path26"
       style="stroke-width:0px" />
    <path
       class="uuid-5c3f599b-0831-487a-9131-9111fc1ba0e6"
       d="M 24.756155,7.6988627 C 4.166952,18.949771 -5.0503084,45.747972 2.7584302,67.639462 9.8808456,87.609625 30.49,100.43253 51.304642,99.988842 72.294853,99.543134 90.428112,84.953492 97.253268,65.212204 104.3717,44.625693 97.341058,22.665943 79.790363,9.9012614 70.281824,2.9848846 58.516848,-0.74333373 46.767838,0.12397317 35.068708,0.9872655 22.501707,6.7110952 17.444192,17.923857 16.273078,20.521765 20.309114,19.851208 21.24082,18.277206 32.211752,-0.2193355 58.347269,1.7461599 74.0585,12.228136 89.582204,22.585637 97.979476,40.72883 94.077098,59.267532 90.226606,77.561298 75.616649,93.190915 56.759185,95.325059 39.226444,97.308614 20.588434,88.278176 11.462947,73.046081 -1.5369744,51.345319 6.2777387,24.444728 26.310312,10.43329 28.538815,8.8753492 27.238025,6.3376707 24.754154,7.6948473 v 0 z"
       id="path27"
       style="stroke-width:0px" />
  </g>
</svg>
