<?xml version="1.0" encoding="UTF-8" standalone="no"?>
<!-- Created with Inkscape (http://www.inkscape.org/) -->

<svg
   width="126mm"
   height="100mm"
   viewBox="0 0 126 100"
   version="1.1"
   id="svg1"
   inkscape:version="1.3.2 (091e20e, 2023-11-25, custom)"
   sodipodi:docname="radio.svg"
   xmlns:inkscape="http://www.inkscape.org/namespaces/inkscape"
   xmlns:sodipodi="http://sodipodi.sourceforge.net/DTD/sodipodi-0.dtd"
   xmlns="http://www.w3.org/2000/svg"
   xmlns:svg="http://www.w3.org/2000/svg">
  <sodipodi:namedview
     id="namedview1"
     pagecolor="#ffffff"
     bordercolor="#000000"
     borderopacity="0.25"
     inkscape:showpageshadow="2"
     inkscape:pageopacity="0.0"
     inkscape:pagecheckerboard="0"
     inkscape:deskcolor="#d1d1d1"
     inkscape:document-units="mm"
     inkscape:zoom="0.73139029"
     inkscape:cx="396.50513"
     inkscape:cy="342.49839"
     inkscape:window-width="1920"
     inkscape:window-height="1017"
     inkscape:window-x="-8"
     inkscape:window-y="-8"
     inkscape:window-maximized="1"
     inkscape:current-layer="layer1" />
  <defs
     id="defs1" />
  <g
     inkscape:label="Шар 1"
     inkscape:groupmode="layer"
     id="layer1">
    <path
       class="uuid-432ea2d1-912f-4d2e-a4a2-a2c0cda53f82"
       d="m 0.16882142,37.264901 c 0.30386197,13.346628 0.74446183,26.688196 1.16379128,40.030774 0.094197,2.992027 0.1883944,5.984054 0.2825917,8.977095 0.085081,2.69323 -0.1742142,5.764262 0.9612166,8.287329 2.1047508,4.67441 8.748186,4.030223 12.933378,4.269262 25.635822,1.462589 51.347609,1.545639 76.995585,0.299808 6.722441,-0.327157 13.439816,-0.746488 20.151116,-1.259001 4.55792,-0.34843 10.42145,0.02025 12.13219,-5.247695 0.56924,-1.75126 0.56114,-3.604816 0.51454,-5.425963 -0.0891,-3.501504 -0.24106,-7.003005 -0.36261,-10.503494 -0.22283,-6.464158 -0.44566,-12.928316 -0.66647,-19.391459 -0.2208,-6.464157 -0.43047,-12.929326 -0.66343,-19.393483 -0.081,-2.242503 -0.13268,-4.70277 -2.19287,-6.085342 -1.86673,-1.251912 -4.42119,-1.038195 -6.5462,-1.049337 C 101.8461,30.70452 88.820552,30.635644 75.79399,30.565756 61.134674,30.487765 46.475362,30.457379 31.817058,30.379387 24.432199,30.339885 17.039238,30.202135 9.6543791,30.265946 5.1389902,30.305448 -0.4439669,31.545204 0.02803205,37.139302 0.13438374,38.401343 2.489314,37.450254 2.393091,36.309758 2.0902419,32.70697 5.5745259,32.330181 8.3963905,32.27346 c 2.8816245,-0.05875 5.7723645,0.02431 8.6550015,0.04153 5.968862,0.03444 11.938737,0.06989 17.907599,0.104326 11.797949,0.06887 23.594883,0.173201 35.391818,0.254231 11.801998,0.08204 23.605008,0.138764 35.407011,0.207639 2.84921,0.0162 5.69741,0.03342 8.54662,0.04963 2.77527,0.0162 5.92734,-0.206626 6.59685,3.195615 0.47605,2.416716 0.26435,5.083612 0.34944,7.535777 0.11344,3.231066 0.22587,6.462132 0.33931,9.693195 0.40515,11.576128 0.92374,23.156307 1.20937,34.73649 0.0486,1.961935 0.18232,5.037018 -1.54362,6.419589 -1.1172,0.895378 -2.88365,0.825491 -4.2328,0.938935 -1.60945,0.13471 -3.21992,0.259294 -4.8314,0.380839 C 106.28552,96.27692 100.3744,96.65067 94.459215,96.952507 70.9008,98.15276 47.285658,98.190234 23.722175,97.107475 20.494148,96.959596 17.268147,96.789434 14.042146,96.597998 11.518066,96.448094 8.1117732,96.674979 6.0677949,94.914604 3.8333967,92.990146 4.1787864,89.271887 4.0926925,86.63234 L 3.759457,76.437771 C 3.3249344,63.129628 2.912695,49.821488 2.3616919,36.517399 2.313074,35.348544 0.14451246,36.224677 0.16780856,37.266926 v 0 z"
       id="path16"
       style="stroke-width:0px" />
    <path
       class="uuid-432ea2d1-912f-4d2e-a4a2-a2c0cda53f82"
       d="m 47.488234,1.5945431 c 10.168234,5.7267855 20.920897,10.5348949 31.427432,15.6043249 5.48977,2.648664 10.97853,5.29834 16.472354,7.938901 5.46952,2.629418 10.88636,5.476605 16.46324,7.869012 1.42309,0.610762 4.19431,-2.141214 2.49268,-3.026466 C 108.71845,27.053112 102.81745,24.580688 97.067364,21.904677 91.79232,19.450485 86.51424,17.004396 81.235142,14.559321 70.56351,9.6164992 59.943535,4.3313268 48.988299,0.04180866 48.243837,-0.24989883 46.544235,1.0617719 47.489248,1.5935306 v 0 z"
       id="path17"
       style="stroke-width:0px" />
    <path
       class="uuid-432ea2d1-912f-4d2e-a4a2-a2c0cda53f82"
       d="m 29.173459,48.674917 c -7.065803,-0.141804 -13.697085,4.479938 -16.228255,11.07678 -2.63347,6.865256 -0.125596,14.81226 5.335816,19.552506 5.852382,5.079558 14.598542,5.587007 21.476965,2.413677 3.520749,-1.623636 6.822713,-4.234823 8.504085,-7.803175 1.786709,-3.790173 1.592237,-8.391655 0.335261,-12.307423 C 45.990193,53.48809 37.87404,46.153875 28.887829,47.677235 c -1.135431,0.192447 -1.877867,2.10475 -0.327158,1.855585 14.443575,-2.32657 25.784714,20.828723 12.569756,29.221392 -5.681206,3.607855 -13.568449,3.746619 -19.19496,-0.0547 -4.930667,-3.332352 -8.014866,-9.449091 -7.386884,-15.417954 0.7475,-7.107331 6.957426,-12.653827 14.0445,-12.847284 0.892341,-0.02431 1.862674,-1.734041 0.580376,-1.760375 v 0 z"
       id="path19"
       style="stroke-width:0px" />
    <path
       class="uuid-432ea2d1-912f-4d2e-a4a2-a2c0cda53f82"
       d="m 30.568185,59.91882 c -3.166241,-0.08913 -6.153204,2.33366 -6.298045,5.612334 -0.159021,3.575442 2.947461,6.196755 6.379075,6.114713 3.163203,-0.07495 6.558354,-2.32353 6.518852,-5.744004 -0.04254,-3.644318 -3.208782,-6.718387 -6.864241,-6.309185 -1.157715,0.129646 -1.896099,1.986241 -0.327159,1.855582 2.122983,-0.177253 3.875253,1.6287 4.449552,3.531888 0.815363,2.701334 -1.130366,4.812163 -3.88842,4.380677 -4.065673,-0.636083 -5.296314,-7.052637 -0.547964,-7.682641 0.805234,-0.106355 1.926485,-1.721886 0.580376,-1.760374 v 0 z"
       id="path20"
       style="stroke-width:0px" />
    <path
       class="uuid-432ea2d1-912f-4d2e-a4a2-a2c0cda53f82"
       d="m 94.928175,48.674917 c -7.065802,-0.141804 -13.697083,4.479938 -16.228254,11.07678 -2.633468,6.865256 -0.125595,14.81226 5.335816,19.552506 5.852384,5.079558 14.598544,5.587007 21.476963,2.413677 3.52075,-1.623636 6.82272,-4.234823 8.50409,-7.803175 1.7867,-3.790173 1.59223,-8.391655 0.33526,-12.307423 -2.60714,-8.119192 -10.72329,-15.453407 -19.709503,-13.930047 -1.135431,0.192447 -1.877869,2.10475 -0.327157,1.855585 14.44357,-2.32657 25.78471,20.828723 12.56976,29.221392 -5.68121,3.607855 -13.568456,3.746619 -19.194965,-0.0547 C 82.759517,75.367163 79.675319,69.250424 80.303302,63.281561 81.0508,56.17423 87.260728,50.627734 94.3478,50.434277 c 0.892341,-0.02431 1.862675,-1.734041 0.580375,-1.760375 v 0 z"
       id="path21"
       style="stroke-width:0px" />
    <path
       class="uuid-432ea2d1-912f-4d2e-a4a2-a2c0cda53f82"
       d="m 96.322905,59.91882 c -3.166244,-0.08913 -6.153206,2.33366 -6.298046,5.612334 -0.159022,3.575442 2.94746,6.196755 6.379073,6.114713 3.163204,-0.07495 6.558358,-2.32353 6.519868,-5.744004 -0.0425,-3.644318 -3.208785,-6.718387 -6.864244,-6.309185 -1.157715,0.129646 -1.896098,1.986241 -0.327156,1.855582 2.12298,-0.177253 3.87525,1.6287 4.44955,3.531888 0.81536,2.701334 -1.130367,4.812163 -3.888419,4.380677 -4.065675,-0.636083 -5.296313,-7.052637 -0.547966,-7.682641 0.805235,-0.106355 1.926487,-1.721886 0.580375,-1.760374 v 0 z"
       id="path22"
       style="stroke-width:0px" />
    <path
       class="uuid-432ea2d1-912f-4d2e-a4a2-a2c0cda53f82"
       d="m 56.929224,52.065002 c -2.555476,-0.143829 -5.02081,1.85356 -5.156534,4.483992 -0.145854,2.81376 2.294156,4.868881 4.988397,4.819249 2.579789,-0.0476 5.393553,-1.903189 5.333791,-4.701758 -0.06178,-2.862378 -2.57675,-5.188948 -5.428998,-4.856727 -1.153665,0.134714 -1.899138,1.979155 -0.32716,1.855585 3.343496,-0.263348 4.707833,6.06306 0.620892,5.444192 -2.665884,-0.404134 -3.846894,-4.771646 -0.610763,-5.283144 0.779912,-0.123574 1.950796,-1.682383 0.580375,-1.760375 v 0 z"
       id="path23"
       style="stroke-width:0px" />
    <path
       class="uuid-432ea2d1-912f-4d2e-a4a2-a2c0cda53f82"
       d="m 68.962158,52.065002 c -2.55548,-0.143829 -5.02081,1.85356 -5.156538,4.483992 -0.145854,2.81376 2.294161,4.868881 4.988401,4.819249 2.579789,-0.0476 5.393553,-1.903189 5.333791,-4.701758 -0.06178,-2.862378 -2.57675,-5.188948 -5.428998,-4.856727 -1.153665,0.134714 -1.899138,1.979155 -0.32716,1.855585 3.343496,-0.263348 4.707833,6.06306 0.620892,5.444192 -2.665884,-0.404134 -3.846894,-4.771646 -0.610763,-5.283144 0.779912,-0.123574 1.950792,-1.682383 0.580375,-1.760375 v 0 z"
       id="path24"
       style="stroke-width:0px" />
    <path
       class="uuid-432ea2d1-912f-4d2e-a4a2-a2c0cda53f82"
       d="m 53.730571,71.840339 c 2.988991,1.655034 7.432466,1.158726 10.758739,1.301544 2.359994,0.101286 8.162745,1.039206 7.719109,-2.940374 -0.08002,-0.718124 -0.942985,-0.981473 -1.528425,-0.994642 -2.677025,-0.05874 -5.353035,-0.05165 -8.03006,-0.05368 -2.691205,-0.0019 -5.48471,-0.132688 -8.057405,0.763704 -0.525683,0.183331 -1.797853,1.404855 -0.861958,1.923448 z"
       id="path25"
       style="stroke-width:0px" />
    <path
       class="uuid-432ea2d1-912f-4d2e-a4a2-a2c0cda53f82"
       d="m 53.730571,78.716734 c 2.988991,1.655038 7.432466,1.15873 10.758739,1.301544 2.359994,0.101286 8.162745,1.039206 7.719109,-2.940369 -0.08002,-0.718129 -0.942985,-0.981477 -1.528425,-0.994643 -2.677025,-0.05875 -5.353035,-0.05166 -8.03006,-0.05368 -2.691205,-0.0019 -5.48471,-0.132689 -8.057405,0.763707 -0.525683,0.183328 -1.797853,1.404855 -0.861958,1.923443 z"
       id="path26"
       style="stroke-width:0px" />
    <path
       class="uuid-432ea2d1-912f-4d2e-a4a2-a2c0cda53f82"
       d="m 7.1535952,43.174003 c 0.1266091,-2.391397 0.19042,-4.774685 0.2248579,-7.169117 -0.559106,0.399072 -1.118212,0.799156 -1.6763051,1.198228 1.924459,-0.01317 3.8884202,0.09116 5.794648,-0.208651 0.819414,-0.128635 1.960922,-1.585147 0.58544,-1.785698 -1.788734,-0.260305 -3.6382405,-0.09217 -5.4411547,-0.05672 -0.8376461,0.01619 -1.6793436,0.547962 -1.6793436,1.453473 0,2.352904 0.027349,4.695678 0.1195189,7.047572 0.041528,1.048321 2.028785,0.35349 2.0733516,-0.480104 v 0 z"
       id="path27"
       style="stroke-width:0px" />
  </g>
</svg>
