<?xml version="1.0" encoding="UTF-8" standalone="no"?>
<!-- Created with Inkscape (http://www.inkscape.org/) -->

<svg
   width="100mm"
   height="100mm"
   viewBox="0 0 100 100"
   version="1.1"
   id="svg1"
   inkscape:version="1.3.2 (091e20e, 2023-11-25, custom)"
   sodipodi:docname="stop_btn.svg"
   xmlns:inkscape="http://www.inkscape.org/namespaces/inkscape"
   xmlns:sodipodi="http://sodipodi.sourceforge.net/DTD/sodipodi-0.dtd"
   xmlns="http://www.w3.org/2000/svg"
   xmlns:svg="http://www.w3.org/2000/svg">
  <sodipodi:namedview
     id="namedview1"
     pagecolor="#ffffff"
     bordercolor="#000000"
     borderopacity="0.25"
     inkscape:showpageshadow="2"
     inkscape:pageopacity="0.0"
     inkscape:pagecheckerboard="0"
     inkscape:deskcolor="#d1d1d1"
     inkscape:document-units="mm"
     inkscape:zoom="0.73139029"
     inkscape:cx="396.50513"
     inkscape:cy="342.49839"
     inkscape:window-width="1920"
     inkscape:window-height="1017"
     inkscape:window-x="-8"
     inkscape:window-y="-8"
     inkscape:window-maximized="1"
     inkscape:current-layer="layer1" />
  <defs
     id="defs1" />
  <g
     inkscape:label="Шар 1"
     inkscape:groupmode="layer"
     id="layer1">
    <path
       class="uuid-5c3f599b-0831-487a-9131-9111fc1ba0e6"
       d="m 34.08912,36.211606 c -1.709781,9.626715 -0.642414,20.315483 -0.460862,30.06667 0.02793,1.521803 2.20057,1.349146 3.082398,1.09016 10.105062,-2.989404 20.427591,-5.270105 30.790024,-7.14525 1.697807,-0.307177 3.706854,-1.965503 3.409587,-3.892854 -0.837932,-5.430705 -1.677863,-10.861418 -2.515795,-16.29213 -0.550642,-3.563596 -0.408987,-8.275566 -4.909881,-8.771456 -2.096826,-0.23088 -4.480943,0.345322 -6.561813,0.550099 -3.018547,0.299141 -6.035104,0.598283 -9.053659,0.897424 -5.761786,0.57017 -11.673197,0.791018 -17.267393,2.361005 -1.895324,0.532025 -3.47742,3.920952 -0.630445,4.216079 4.199638,0.435658 8.532946,-0.291113 12.712633,-0.714728 4.526833,-0.459749 9.053659,-0.917495 13.578494,-1.377251 0.97759,-0.09838 2.034979,-0.329259 3.018556,-0.305167 1.560149,0.03612 1.639949,0.140538 2.21852,1.210619 0.859883,1.592075 0.760131,4.830427 1.045423,6.655385 0.736182,4.683864 1.472371,9.365718 2.208553,14.049582 1.13719,-1.296948 2.27239,-2.595899 3.409588,-3.892846 -10.929038,2.00364 -21.618658,4.838454 -32.202546,8.219346 1.027469,0.363389 2.054931,0.72677 3.082392,1.090159 -0.197507,-4.858532 -0.329186,-9.721078 -0.404997,-14.583625 -0.07382,-4.730037 0.31323,-9.725085 -0.450889,-14.39891 -0.363103,-2.218464 -3.826557,-0.550099 -4.097888,0.971703 v 0 z"
       id="path28"
       style="stroke-width:0px" />
    <path
       class="uuid-5c3f599b-0831-487a-9131-9111fc1ba0e6"
       d="M 24.756149,7.6988629 C 4.1669515,18.949772 -5.0503049,45.747978 2.7584272,67.639464 9.8808529,87.609628 30.490001,100.43253 51.304646,99.988842 72.294852,99.543138 90.428111,84.953496 97.253266,65.212209 104.37171,44.625698 97.341052,22.665945 79.790354,9.9012624 70.281816,2.9848841 58.516845,-0.7433344 46.767836,0.12397339 35.068703,0.98726564 22.501711,6.7110956 17.444191,17.923859 c -1.17111,2.597908 2.864931,1.927351 3.796632,0.353348 C 32.211753,-0.21933632 58.347267,1.74616 74.058495,12.228137 89.582193,22.585639 97.979479,40.728831 94.077108,59.267539 90.226608,77.561302 75.616655,93.190909 56.759181,95.325056 39.226444,97.308618 20.588432,88.278176 11.462949,73.046085 -1.5369742,51.345323 6.2777435,24.444729 26.310314,10.433292 28.538816,8.8753496 27.238025,6.3376715 24.754154,7.6948473 v 0 z"
       id="path29"
       style="stroke-width:0px" />
  </g>
</svg>
